# xmcd
#
# Track frame offsets:
#	150
#	13012
#	35253
#	56272
#	66886
#	83326
#	99695
#	112072
#	136715
#	150165
#	171055
#	185218
#	197448
#	214240
#	232149
#	260654
#	283685
#
# Disc length: 3831 seconds
#
# Revision: 0
# Processed by: cddbd v1.5.2PL0 Copyright (c) Steve Scherf et al.
# Submitted via: EasyCDDAExtractor 16.0.1.1
#
DISCID=e70ef511
DTITLE=Jack And The Daniels - Live At La Tour
DYEAR=2001
DGENRE=R&B
TTITLE0=Respect
TTITLE1=Long Train Runnin'
TTITLE2=Diggin' On James Brown
TTITLE3=Hold On I'm Comin'
TTITLE4=Land Of 1.000 Dances
TTITLE5=Uptight
TTITLE6=Take Me To The River
TTITLE7=Sweet Home Chicago
TTITLE8=Hard To Handle
TTITLE9=Mustang Sally
TTITLE10=In The Midnight Hour
TTITLE11=634-5789 (Soulsville, U.S.A)
TTITLE12=What'd I Say
TTITLE13=Come Together
TTITLE14=The Thrill Is Gone
TTITLE15=I Heard It Through The Grapevine
TTITLE16=I Got The Feelin'
EXTD=
EXTT0=
EXTT1=
EXTT2=
EXTT3=
EXTT4=
EXTT5=
EXTT6=
EXTT7=
EXTT8=
EXTT9=
EXTT10=
EXTT11=
EXTT12=
EXTT13=
EXTT14=
EXTT15=
EXTT16=
PLAYORDER=
